<svg id="White_Badges" data-name="White Badges" xmlns="http://www.w3.org/2000/svg" viewBox="0 0 704.36 800"><defs><style>.cls-1{fill:#f8f8f8;}.cls-2{fill:#fff;}.cls-3{fill:#dcdfdd;}.cls-4{fill:#ff492c;}.cls-5{fill:#252530;}</style></defs><polygon class="cls-1" points="667.54 638.25 352.18 800 36.82 638.25 36.82 0 667.54 0 667.54 638.25"/><polygon class="cls-2" points="37.56 0 37.56 638.24 668.28 0 37.56 0"/><path class="cls-3" d="M661.54,6V634.58L352.18,793.26,42.82,634.58V6H661.54m6-6H36.82V638.24L352.18,800,667.54,638.24V0Z"/><polygon class="cls-4" points="424.91 114.11 351.55 156.74 279.45 114.11 279.45 0 424.91 0 424.91 114.11"/><path class="cls-2" d="M387.21,56.45H373.54c.38-2.15,1.7-3.34,4.38-4.71l2.52-1.28c4.5-2.31,6.89-4.91,6.89-9.16A7.44,7.44,0,0,0,384.24,35a12,12,0,0,0-7.35-2.27,11.41,11.41,0,0,0-6.24,1.78,10.48,10.48,0,0,0-4.12,4.5l4,4c1.53-3.1,3.76-4.62,6.69-4.62,2.47,0,4,1.28,4,3.05,0,1.49-.74,2.73-3.59,4.17l-1.61.79c-3.51,1.77-6,3.79-7.35,6.11a16.43,16.43,0,0,0-2.1,8.71v1h20.68Z"/><polygon class="cls-2" points="385.38 68.64 362.75 68.64 351.44 88.23 374.07 88.23 385.38 107.83 396.69 88.23 385.38 68.64"/><path class="cls-2" d="M353.39,101.3a26.13,26.13,0,0,1,0-52.26l8.95-18.72a46.35,46.35,0,0,0-8.95-.87,45.72,45.72,0,1,0,26.93,82.67L370.41,95A26,26,0,0,1,353.39,101.3Z"/><polygon class="cls-4" points="681.96 501.65 22.4 501.65 0 445.65 22.4 389.65 681.96 389.65 704.36 445.65 681.96 501.65"/><path class="cls-2" d="M121.74,463.51a12,12,0,0,1-5.24-4.21,11,11,0,0,1-1.85-6.33v-1a.87.87,0,0,1,1-1h6.05c.65,0,1,.25,1,.75v.8a4.72,4.72,0,0,0,2.1,3.89,8.89,8.89,0,0,0,5.5,1.59,6.73,6.73,0,0,0,4.53-1.3,4.09,4.09,0,0,0,1.47-3.2,3.2,3.2,0,0,0-.93-2.33,8.27,8.27,0,0,0-2.47-1.67q-1.56-.72-5-2a46,46,0,0,1-6.57-2.7,13.41,13.41,0,0,1-4.49-3.78,9.36,9.36,0,0,1-1.85-5.9,10.4,10.4,0,0,1,1.79-6.05,11.31,11.31,0,0,1,5-4,18.06,18.06,0,0,1,7.29-1.39,18.84,18.84,0,0,1,7.83,1.56,12.59,12.59,0,0,1,5.39,4.35,11.16,11.16,0,0,1,1.93,6.48v.57a.86.86,0,0,1-1,1h-6c-.65,0-1-.19-1-.57v-.58a5.22,5.22,0,0,0-2-4.12,8.11,8.11,0,0,0-5.44-1.7,6.92,6.92,0,0,0-4.26,1.15,3.79,3.79,0,0,0-1.5,3.17,3.55,3.55,0,0,0,.86,2.42,7.78,7.78,0,0,0,2.62,1.79c1.18.54,3,1.23,5.45,2.07q4,1.5,6.39,2.62a12.09,12.09,0,0,1,4.23,3.43,9.1,9.1,0,0,1,1.88,5.93,10.66,10.66,0,0,1-1.82,6.17,11.74,11.74,0,0,1-5.12,4.09,21.7,21.7,0,0,1-15.7-.06Z"/><path class="cls-2" d="M154.34,462.47a12.64,12.64,0,0,1-4.72-6.91,20.43,20.43,0,0,1-.81-5.88,19.21,19.21,0,0,1,.87-6.1,12.37,12.37,0,0,1,4.75-6.68,14,14,0,0,1,8.32-2.42,13.49,13.49,0,0,1,8.1,2.42,12.54,12.54,0,0,1,4.69,6.62,19.38,19.38,0,0,1,.86,6.05,23,23,0,0,1-.74,5.82,12.94,12.94,0,0,1-13,9.62A13.76,13.76,0,0,1,154.34,462.47Zm11.52-5.59a6.28,6.28,0,0,0,1.9-3.16,14.48,14.48,0,0,0,.46-4,15.53,15.53,0,0,0-.46-4.09,6,6,0,0,0-1.9-3,5,5,0,0,0-3.28-1.09,4.91,4.91,0,0,0-3.23,1.09,6.12,6.12,0,0,0-1.9,3,16,16,0,0,0-.46,4.09,15.71,15.71,0,0,0,.46,4,6.32,6.32,0,0,0,1.93,3.16A5,5,0,0,0,162.7,458,4.65,4.65,0,0,0,165.86,456.88Z"/><path class="cls-2" d="M198.41,435.86v4.9a.86.86,0,0,1-1,1h-5.24a.31.31,0,0,0-.35.35v21.49a.86.86,0,0,1-1,1H184.7a.86.86,0,0,1-1-1V442.08a.31.31,0,0,0-.35-.35h-3.05a.86.86,0,0,1-1-1v-4.9a.87.87,0,0,1,1-1h3.05a.31.31,0,0,0,.35-.35v-1.21a11.6,11.6,0,0,1,1.09-5.55,6.09,6.09,0,0,1,3.55-2.83,20.37,20.37,0,0,1,6.76-.72H197a.87.87,0,0,1,1,1v4.09a.86.86,0,0,1-1,1h-1.62a4.09,4.09,0,0,0-2.79.84,4,4,0,0,0-.78,2.85v.57a.31.31,0,0,0,.35.35h5.24A.87.87,0,0,1,198.41,435.86Z"/><path class="cls-2" d="M219.15,441.45H214a.3.3,0,0,0-.34.34v11.93a4.19,4.19,0,0,0,.77,2.79,3.16,3.16,0,0,0,2.51.89h1.61a.87.87,0,0,1,1,1v5a1,1,0,0,1-1,1c-1.46.08-2.51.12-3.17.12q-4.77,0-7.14-1.62t-2.42-6V441.79a.3.3,0,0,0-.34-.34H202.5a.86.86,0,0,1-1-1v-4.55a.86.86,0,0,1,1-1h2.94a.31.31,0,0,0,.34-.35v-6.51a.87.87,0,0,1,1-1h5.88a.87.87,0,0,1,1,1v6.51a.31.31,0,0,0,.34.35h5.19a.86.86,0,0,1,1,1v4.55A.86.86,0,0,1,219.15,441.45Z"/><path class="cls-2" d="M231.59,463.74,223.46,436a.94.94,0,0,1-.05-.34c0-.5.29-.75.86-.75h6.34a1,1,0,0,1,1.09.86l4,17.05c0,.16.11.23.23.23s.19-.07.23-.23l4.26-17.05a1,1,0,0,1,1.09-.86h5.65a1,1,0,0,1,1.09.86l4.38,17.11c0,.15.12.23.23.23s.19-.08.23-.23l4.38-17.11a1,1,0,0,1,1.09-.86l6.34.06a.79.79,0,0,1,.72.31,1,1,0,0,1,.09.78l-8.24,27.65a1.08,1.08,0,0,1-1.09.8H249.9a1.08,1.08,0,0,1-1.09-.8l-4.32-15.09c-.08-.16-.16-.23-.26-.23s-.16.07-.2.23l-3.8,15a1,1,0,0,1-1.1.86h-6.45A1.07,1.07,0,0,1,231.59,463.74Z"/><path class="cls-2" d="M287.11,435.77a11,11,0,0,1,4.58,3.55,8.22,8.22,0,0,1,1.64,5v19.24a.85.85,0,0,1-1,1h-6.17a.86.86,0,0,1-1-1v-1.39c0-.15,0-.24-.11-.26s-.17,0-.29.15q-2.65,2.94-7.89,2.94a11,11,0,0,1-7.14-2.19,7.79,7.79,0,0,1-2.71-6.45,8.27,8.27,0,0,1,3.11-6.89q3.1-2.44,8.87-2.45h5.82a.3.3,0,0,0,.34-.34v-1.21a3.79,3.79,0,0,0-1.18-3,5,5,0,0,0-3.42-1.06,6.3,6.3,0,0,0-2.86.57,3,3,0,0,0-1.52,1.62,1.09,1.09,0,0,1-1.15.74l-6.4-.8a1.49,1.49,0,0,1-.72-.26.54.54,0,0,1-.2-.55,7.64,7.64,0,0,1,2-4.26,11.25,11.25,0,0,1,4.49-3,17.26,17.26,0,0,1,6.19-1.06A16.41,16.41,0,0,1,287.11,435.77Zm-3.62,21.86a4.09,4.09,0,0,0,1.72-3.4v-2a.31.31,0,0,0-.34-.35h-4.09a7.43,7.43,0,0,0-4.09,1,3.13,3.13,0,0,0-1.5,2.77,3,3,0,0,0,1.12,2.44,4.61,4.61,0,0,0,3,.9A6.7,6.7,0,0,0,283.49,457.63Z"/><path class="cls-2" d="M316.78,435.23a1,1,0,0,1,.52,1.21l-1.1,6c0,.35-.14.56-.31.64a1.65,1.65,0,0,1-.84,0,6.61,6.61,0,0,0-1.67-.23c-.27,0-.71,0-1.32.11a5.7,5.7,0,0,0-3.52,1.53,4.7,4.7,0,0,0-1.44,3.6v15.44a.86.86,0,0,1-1,1H300a.86.86,0,0,1-1-1V435.92a.86.86,0,0,1,1-1h6.16a.86.86,0,0,1,1,1v1.78c0,.16,0,.25.12.29s.17,0,.29-.11a7.18,7.18,0,0,1,6.22-3.35A6,6,0,0,1,316.78,435.23Z"/><path class="cls-2" d="M340.4,455.5a1,1,0,0,1,.75-.4.84.84,0,0,1,.63.29l3.28,3.16a1,1,0,0,1,.35.7,1.1,1.1,0,0,1-.23.69,13.15,13.15,0,0,1-4.87,3.71,15.48,15.48,0,0,1-6.48,1.36,13.91,13.91,0,0,1-8.78-2.71,13.24,13.24,0,0,1-4.7-7.43,20.34,20.34,0,0,1-.69-5.36,21.62,21.62,0,0,1,.63-5.64,12.32,12.32,0,0,1,4.64-6.86,13.45,13.45,0,0,1,8.27-2.59,12,12,0,0,1,8.95,3.34,16.79,16.79,0,0,1,4.3,9.39c.15,1.27.26,2.67.34,4.2a.86.86,0,0,1-1,1H328.13a.31.31,0,0,0-.35.35,8,8,0,0,0,.41,1.78,4.66,4.66,0,0,0,2.27,2.74,8.36,8.36,0,0,0,4.12.95A7.55,7.55,0,0,0,340.4,455.5ZM330,442.34a4.51,4.51,0,0,0-1.7,2.51c-.19.72-.31,1.2-.35,1.44s.06.34.29.34H338c.19,0,.28-.08.28-.23a4,4,0,0,0-.23-1.32,5.42,5.42,0,0,0-8.09-2.74Z"/><path class="cls-2" d="M387.17,425.72a11,11,0,0,1,4.46,4.41,13.2,13.2,0,0,1,1.59,6.54,12.33,12.33,0,0,1-1.64,6.39,11.24,11.24,0,0,1-4.61,4.29,14.72,14.72,0,0,1-6.83,1.53H372a.31.31,0,0,0-.35.34v14.35a.85.85,0,0,1-1,1h-6.17a.86.86,0,0,1-1-1V425.15a.86.86,0,0,1,1-1h16A13.81,13.81,0,0,1,387.17,425.72Zm-3.63,15.12a5.24,5.24,0,0,0,1.61-4,5.41,5.41,0,0,0-1.61-4.09,5.88,5.88,0,0,0-4.26-1.56H372a.31.31,0,0,0-.35.35V442a.31.31,0,0,0,.35.35h7.26A6,6,0,0,0,383.54,440.84Z"/><path class="cls-2" d="M415.51,435.23a1,1,0,0,1,.52,1.21l-1.1,6c0,.35-.14.56-.31.64a1.65,1.65,0,0,1-.84,0,6.61,6.61,0,0,0-1.67-.23c-.27,0-.71,0-1.32.11a5.7,5.7,0,0,0-3.52,1.53,4.7,4.7,0,0,0-1.44,3.6v15.44a.86.86,0,0,1-1,1h-6.16a.86.86,0,0,1-1-1V435.92a.86.86,0,0,1,1-1h6.16a.86.86,0,0,1,1,1v1.78c0,.16,0,.25.12.29s.17,0,.29-.11a7.17,7.17,0,0,1,6.22-3.35A6,6,0,0,1,415.51,435.23Z"/><path class="cls-2" d="M423.8,462.47a12.69,12.69,0,0,1-4.72-6.91,20.43,20.43,0,0,1-.81-5.88,19.21,19.21,0,0,1,.87-6.1,12.43,12.43,0,0,1,4.75-6.68,14,14,0,0,1,8.32-2.42,13.49,13.49,0,0,1,8.1,2.42,12.54,12.54,0,0,1,4.69,6.62,19.37,19.37,0,0,1,.87,6.05,22.55,22.55,0,0,1-.75,5.82,12.92,12.92,0,0,1-13,9.62A13.76,13.76,0,0,1,423.8,462.47Zm11.53-5.59a6.42,6.42,0,0,0,1.9-3.16,14.87,14.87,0,0,0,.46-4,16,16,0,0,0-.46-4.09,6.12,6.12,0,0,0-1.9-3,5,5,0,0,0-3.29-1.09,4.87,4.87,0,0,0-3.22,1.09,6.07,6.07,0,0,0-1.91,3,16,16,0,0,0-.46,4.09,15.71,15.71,0,0,0,.46,4,6.32,6.32,0,0,0,1.93,3.16,5,5,0,0,0,3.32,1.16A4.68,4.68,0,0,0,435.33,456.88Z"/><path class="cls-2" d="M469.94,424.22h6.17a.87.87,0,0,1,1,1v38.37a.86.86,0,0,1-1,1h-6.17a.86.86,0,0,1-1-1V462c0-.15,0-.24-.14-.26s-.18,0-.26.15A7.78,7.78,0,0,1,462,465a11,11,0,0,1-6.94-2.34,11.86,11.86,0,0,1-4.17-6.13,20.77,20.77,0,0,1-1-6.91,20.25,20.25,0,0,1,1.09-7.15,12.11,12.11,0,0,1,4.18-5.87,11,11,0,0,1,6.82-2.19,8,8,0,0,1,6.57,2.82c.08.12.16.16.26.12s.14-.14.14-.29V425.2A.87.87,0,0,1,469.94,424.22Zm-1,25.52a12.17,12.17,0,0,0-1.21-5.93,4.4,4.4,0,0,0-3.86-2.25,4.47,4.47,0,0,0-4,2.19,11.58,11.58,0,0,0-1.39,6.05,11.84,11.84,0,0,0,1.21,5.64,4.51,4.51,0,0,0,4.21,2.48,4.27,4.27,0,0,0,3.91-2.48A12,12,0,0,0,468.91,449.74Z"/><path class="cls-2" d="M501.45,434.94h6.17a.86.86,0,0,1,1,1v27.65a.85.85,0,0,1-1,1h-6.17a.86.86,0,0,1-1-1V462c0-.15-.05-.24-.14-.26s-.18,0-.26.15q-2.25,3-7.09,3.05a10.1,10.1,0,0,1-7.2-2.65,9.7,9.7,0,0,1-2.82-7.43V435.92a.86.86,0,0,1,1-1h6.11a.86.86,0,0,1,1,1v16.93a5.57,5.57,0,0,0,1.23,3.75,4.29,4.29,0,0,0,3.43,1.44,4.59,4.59,0,0,0,3.23-1.18,5.15,5.15,0,0,0,1.55-3.09V435.92A.86.86,0,0,1,501.45,434.94Z"/><path class="cls-2" d="M519.62,462.7a12.6,12.6,0,0,1-4.81-6.33,21.26,21.26,0,0,1-1-6.8,20.5,20.5,0,0,1,1-6.68,12,12,0,0,1,4.79-6.17,14.21,14.21,0,0,1,8-2.24,14.42,14.42,0,0,1,8.1,2.3,11.08,11.08,0,0,1,4.63,5.82,6.21,6.21,0,0,1,.46,1.78v.12c0,.5-.29.81-.86.92l-6,.92-.29.06a.73.73,0,0,1-.8-.69l-.18-.81a4.36,4.36,0,0,0-1.78-2.47,5.5,5.5,0,0,0-3.29-1,5.14,5.14,0,0,0-3.11.92,4.86,4.86,0,0,0-1.78,2.53,14.21,14.21,0,0,0-.64,4.73,15.57,15.57,0,0,0,.58,4.72,5.17,5.17,0,0,0,1.82,2.71,5.06,5.06,0,0,0,3.13,1,5.35,5.35,0,0,0,3.14-1,4.88,4.88,0,0,0,1.88-2.57l.05-.29a1.31,1.31,0,0,1,.41-.54.89.89,0,0,1,.75-.26l6,.92a1.14,1.14,0,0,1,.67.4,1,1,0,0,1,.14.69,5.27,5.27,0,0,1-.29,1.33,10.73,10.73,0,0,1-4.69,6.05,14.8,14.8,0,0,1-8,2.19A13.78,13.78,0,0,1,519.62,462.7Z"/><path class="cls-2" d="M561.53,441.45h-5.19a.3.3,0,0,0-.34.34v11.93a4.19,4.19,0,0,0,.78,2.79,3.13,3.13,0,0,0,2.5.89h1.62a.86.86,0,0,1,1,1v5a1,1,0,0,1-1,1c-1.46.08-2.52.12-3.17.12q-4.79,0-7.15-1.62t-2.42-6V441.79a.3.3,0,0,0-.34-.34h-2.94a.87.87,0,0,1-1-1v-4.55a.86.86,0,0,1,1-1h2.94a.31.31,0,0,0,.34-.35v-6.51a.87.87,0,0,1,1-1H555a.87.87,0,0,1,1,1v6.51a.31.31,0,0,0,.34.35h5.19a.86.86,0,0,1,1,1v4.55A.87.87,0,0,1,561.53,441.45Z"/><path class="cls-2" d="M572.47,463.85A10,10,0,0,1,568,460.8a6.91,6.91,0,0,1-1.56-4.43v-.29a.86.86,0,0,1,1-1h5.82c.65,0,1,.11,1,.34v.41a2.58,2.58,0,0,0,1.38,2.16,6.39,6.39,0,0,0,3.51.89,5.93,5.93,0,0,0,3.17-.75,2.23,2.23,0,0,0,1.21-2,1.64,1.64,0,0,0-1-1.55,17.6,17.6,0,0,0-3.39-1.1,36,36,0,0,1-4.21-1.32,18.37,18.37,0,0,1-5.93-3.11,6.55,6.55,0,0,1-2.19-5.3,8,8,0,0,1,3.34-6.77,14.25,14.25,0,0,1,8.76-2.51,16.54,16.54,0,0,1,6.48,1.19,9.87,9.87,0,0,1,4.32,3.31,8.14,8.14,0,0,1,1.52,4.84.59.59,0,0,1-.26.49,1.16,1.16,0,0,1-.72.2h-5.64c-.66,0-1-.12-1-.35v-.34a2.53,2.53,0,0,0-1.27-2.14,6,6,0,0,0-3.4-.86,6.43,6.43,0,0,0-3.14.69,2.11,2.11,0,0,0-1.23,1.9,1.84,1.84,0,0,0,1.18,1.73,20,20,0,0,0,3.89,1.21,29.8,29.8,0,0,1,3.22.86,18.9,18.9,0,0,1,6.51,3.11,6.71,6.71,0,0,1,2.36,5.53,7.68,7.68,0,0,1-3.4,6.66c-2.26,1.59-5.3,2.39-9.1,2.39A18.93,18.93,0,0,1,572.47,463.85Z"/><path class="cls-5" d="M139.18,567.43c0,.08.06.14.16.19a6.31,6.31,0,0,1,3.42,6.07,6.56,6.56,0,0,1-2.65,5.72,11.8,11.8,0,0,1-7,1.88h-10a.68.68,0,0,1-.5-.19.66.66,0,0,1-.19-.5V555.1a.65.65,0,0,1,.69-.69h9.68q4.68,0,7.08,1.77t2.4,5.72a5.55,5.55,0,0,1-3,5.34C139.24,567.29,139.18,567.35,139.18,567.43Zm-10.33-7.3v4.69a.24.24,0,0,0,.27.27h3.73a3.81,3.81,0,0,0,2.42-.68,2.28,2.28,0,0,0,.84-1.9,2.42,2.42,0,0,0-.84-2,3.75,3.75,0,0,0-2.42-.69h-3.73A.24.24,0,0,0,128.85,560.13Zm6.69,15a2.91,2.91,0,0,0,0-4.07,3.64,3.64,0,0,0-2.4-.71h-4a.24.24,0,0,0-.27.27v4.95a.24.24,0,0,0,.27.27h4A3.63,3.63,0,0,0,135.54,575.09Z"/><path class="cls-5" d="M166,559.67a.68.68,0,0,1-.5.19H153.78a.24.24,0,0,0-.27.27v4.57a.24.24,0,0,0,.27.27h7.41a.72.72,0,0,1,.5.19.68.68,0,0,1,.19.5v4a.65.65,0,0,1-.19.5.69.69,0,0,1-.5.2h-7.41a.24.24,0,0,0-.27.26v4.92a.24.24,0,0,0,.27.27h11.75a.65.65,0,0,1,.69.69v4.07a.66.66,0,0,1-.19.5.68.68,0,0,1-.5.19h-17.7a.65.65,0,0,1-.5-.19.67.67,0,0,1-.2-.5V555.1a.69.69,0,0,1,.2-.5.65.65,0,0,1,.5-.19h17.7a.65.65,0,0,1,.69.69v4.07A.66.66,0,0,1,166,559.67Z"/><path class="cls-5" d="M174.46,580.58a8,8,0,0,1-3.59-2.92,7.67,7.67,0,0,1-1.27-4.39v-.5a.65.65,0,0,1,.69-.69h4.88a.81.81,0,0,1,.49.13.4.4,0,0,1,.2.33V573a2.73,2.73,0,0,0,1.25,2.19,5.1,5.1,0,0,0,3.2,1,3.68,3.68,0,0,0,2.5-.73,2.21,2.21,0,0,0,.8-1.69,1.81,1.81,0,0,0-.94-1.65,16.09,16.09,0,0,0-3.36-1.35l-.84-.27a31.41,31.41,0,0,1-4.3-1.74A9.33,9.33,0,0,1,171,566.1a6.49,6.49,0,0,1-1.31-4.12,7.11,7.11,0,0,1,1.25-4.17,8,8,0,0,1,3.46-2.75,12.44,12.44,0,0,1,5-1,12.68,12.68,0,0,1,5.32,1.08,8.83,8.83,0,0,1,3.7,3,7.76,7.76,0,0,1,1.35,4.5v.3a.7.7,0,0,1-.19.5.68.68,0,0,1-.5.19h-4.88a1.18,1.18,0,0,1-.5-.09.31.31,0,0,1-.19-.29V563a3.11,3.11,0,0,0-1.19-2.38,4.71,4.71,0,0,0-3.19-1,3.9,3.9,0,0,0-2.34.61,2,2,0,0,0-.85,1.73,1.93,1.93,0,0,0,.54,1.4,5.06,5.06,0,0,0,1.67,1c.76.32,1.91.73,3.48,1.25,1.79.61,3.18,1.15,4.18,1.61a8.37,8.37,0,0,1,2.82,2.24,6.06,6.06,0,0,1,1.33,4.09,7.23,7.23,0,0,1-1.27,4.25,8.2,8.2,0,0,1-3.57,2.82,14.65,14.65,0,0,1-10.69,0Z"/><path class="cls-5" d="M213.61,554.6a.72.72,0,0,1,.19.5v4.11a.7.7,0,0,1-.19.5.68.68,0,0,1-.5.19h-6.42a.24.24,0,0,0-.27.27V580.6a.65.65,0,0,1-.69.69h-5a.68.68,0,0,1-.5-.19.66.66,0,0,1-.19-.5V560.17a.24.24,0,0,0-.27-.27H193.6a.65.65,0,0,1-.69-.69V555.1a.68.68,0,0,1,.19-.5.66.66,0,0,1,.5-.19h19.51A.68.68,0,0,1,213.61,554.6Z"/><path class="cls-5" d="M230.37,580.58a8,8,0,0,1-3.59-2.92,7.67,7.67,0,0,1-1.27-4.39v-.5a.65.65,0,0,1,.69-.69h4.88a.87.87,0,0,1,.5.13.41.41,0,0,1,.19.33V573a2.73,2.73,0,0,0,1.25,2.19,5.1,5.1,0,0,0,3.2,1,3.68,3.68,0,0,0,2.5-.73,2.22,2.22,0,0,0,.81-1.69,1.82,1.82,0,0,0-.95-1.65,16.09,16.09,0,0,0-3.36-1.35l-.84-.27a31.41,31.41,0,0,1-4.3-1.74,9.33,9.33,0,0,1-3.15-2.62,6.49,6.49,0,0,1-1.31-4.12,7.11,7.11,0,0,1,1.25-4.17,8,8,0,0,1,3.46-2.75,12.44,12.44,0,0,1,5-1,12.68,12.68,0,0,1,5.32,1.08,8.83,8.83,0,0,1,3.7,3,7.76,7.76,0,0,1,1.35,4.5v.3a.7.7,0,0,1-.19.5.68.68,0,0,1-.5.19h-4.88a1.18,1.18,0,0,1-.5-.09.31.31,0,0,1-.19-.29V563a3.11,3.11,0,0,0-1.19-2.38,4.71,4.71,0,0,0-3.19-1,3.9,3.9,0,0,0-2.34.61,2,2,0,0,0-.85,1.73,1.93,1.93,0,0,0,.54,1.4,5.17,5.17,0,0,0,1.67,1c.76.32,1.91.73,3.48,1.25,1.79.61,3.18,1.15,4.18,1.61a8.5,8.5,0,0,1,2.83,2.24,6.11,6.11,0,0,1,1.32,4.09,7.23,7.23,0,0,1-1.27,4.25,8.2,8.2,0,0,1-3.57,2.82,13.12,13.12,0,0,1-5.3,1A13.29,13.29,0,0,1,230.37,580.58Z"/><path class="cls-5" d="M254.52,580.47a9.09,9.09,0,0,1-3.67-3.52,10.34,10.34,0,0,1-1.3-5.26V564a10.07,10.07,0,0,1,1.3-5.16,9,9,0,0,1,3.67-3.5,12.64,12.64,0,0,1,11,0,9,9,0,0,1,3.69,3.5,10.07,10.07,0,0,1,1.31,5.16v7.68a10.34,10.34,0,0,1-1.31,5.26,9,9,0,0,1-3.69,3.52,12.73,12.73,0,0,1-11,0Zm8.45-5.4a4.46,4.46,0,0,0,1.13-3.19v-8a4.45,4.45,0,0,0-1.13-3.16,3.89,3.89,0,0,0-3-1.21,3.81,3.81,0,0,0-2.93,1.21,4.41,4.41,0,0,0-1.14,3.16v8a4.42,4.42,0,0,0,1.14,3.19,3.87,3.87,0,0,0,2.93,1.19A4,4,0,0,0,263,575.07Z"/><path class="cls-5" d="M293.63,559.67a.66.66,0,0,1-.5.19H281.42a.24.24,0,0,0-.27.27v4.57a.24.24,0,0,0,.27.27h7.41a.7.7,0,0,1,.5.19.68.68,0,0,1,.19.5v4a.65.65,0,0,1-.19.5.67.67,0,0,1-.5.2h-7.41a.24.24,0,0,0-.27.26v10a.66.66,0,0,1-.19.5.68.68,0,0,1-.5.19h-5a.65.65,0,0,1-.69-.69V555.1a.68.68,0,0,1,.19-.5.66.66,0,0,1,.5-.19h17.66a.66.66,0,0,1,.5.19.68.68,0,0,1,.19.5v4.07A.66.66,0,0,1,293.63,559.67Z"/><path class="cls-5" d="M316.83,554.6a.72.72,0,0,1,.19.5v4.11a.7.7,0,0,1-.19.5.68.68,0,0,1-.5.19h-6.42a.24.24,0,0,0-.26.27V580.6a.67.67,0,0,1-.2.5.65.65,0,0,1-.5.19h-5a.68.68,0,0,1-.5-.19.7.7,0,0,1-.19-.5V560.17a.24.24,0,0,0-.27-.27h-6.18a.68.68,0,0,1-.5-.19.66.66,0,0,1-.19-.5V555.1a.65.65,0,0,1,.69-.69h19.51A.68.68,0,0,1,316.83,554.6Z"/><path class="cls-5" d="M326,580.72l-7-25.54a.47.47,0,0,1,0-.23c0-.36.2-.54.61-.54H325a.83.83,0,0,1,.52.17.73.73,0,0,1,.25.45L329,568.58c.05.1.11.15.17.15s.11-.05.14-.15L332.38,555a.7.7,0,0,1,.77-.62h4.57a.74.74,0,0,1,.77.62l3.37,13.55c.06.1.11.15.18.15s.11-.05.13-.15l3-13.55a.68.68,0,0,1,.25-.45.81.81,0,0,1,.52-.17h5.22a.56.56,0,0,1,.61.77l-6.37,25.5a.73.73,0,0,1-.77.61h-5.11a.83.83,0,0,1-.52-.17.7.7,0,0,1-.25-.44l-3.22-14.4c0-.13-.08-.2-.16-.2s-.12.07-.15.2l-2.92,14.4a.67.67,0,0,1-.73.61h-4.76A.72.72,0,0,1,326,580.72Z"/><path class="cls-5" d="M367.79,580.72l-.89-3.15c0-.16-.13-.23-.31-.23h-8.67a.29.29,0,0,0-.31.23l-.88,3.15a.72.72,0,0,1-.77.57h-5.42a.65.65,0,0,1-.54-.21.6.6,0,0,1,0-.56L358,555a.78.78,0,0,1,.81-.58h6.79a.74.74,0,0,1,.81.58l8.1,25.53a.61.61,0,0,1,0,.27c0,.34-.2.5-.61.5h-5.42A.71.71,0,0,1,367.79,580.72Zm-8.61-8.53a.21.21,0,0,0,.23.23h5.69a.22.22,0,0,0,.21-.1.25.25,0,0,0,0-.21l-2.92-10.21c0-.13-.07-.19-.14-.19s-.12.06-.17.19l-2.92,10.21Z"/><path class="cls-5" d="M392.21,580.75l-4.46-10a.29.29,0,0,0-.3-.19h-2.38a.24.24,0,0,0-.27.27v9.75a.67.67,0,0,1-.2.5.64.64,0,0,1-.49.19h-5a.68.68,0,0,1-.5-.19.7.7,0,0,1-.19-.5V555.1a.72.72,0,0,1,.19-.5.68.68,0,0,1,.5-.19h11.18a9.23,9.23,0,0,1,4.45,1,7.34,7.34,0,0,1,3,2.94,8.83,8.83,0,0,1,1,4.35,7.82,7.82,0,0,1-1.24,4.42,7.14,7.14,0,0,1-3.48,2.73.25.25,0,0,0-.15.38l4.91,10.22.08.3c0,.34-.21.5-.61.5H393A.81.81,0,0,1,392.21,580.75Zm-7.41-20.62v5.3a.24.24,0,0,0,.27.27h4.18a3.28,3.28,0,0,0,2.3-.79,2.66,2.66,0,0,0,.89-2.09,2.77,2.77,0,0,0-.89-2.15,3.25,3.25,0,0,0-2.3-.81h-4.18A.24.24,0,0,0,384.8,560.13Z"/><path class="cls-5" d="M421.85,559.67a.66.66,0,0,1-.5.19H409.6a.24.24,0,0,0-.27.27v4.57a.24.24,0,0,0,.27.27H417a.67.67,0,0,1,.7.69v4a.68.68,0,0,1-.7.7H409.6a.24.24,0,0,0-.27.26v4.92a.24.24,0,0,0,.27.27h11.75a.66.66,0,0,1,.5.19.68.68,0,0,1,.19.5v4.07a.65.65,0,0,1-.69.69h-17.7a.68.68,0,0,1-.5-.19.66.66,0,0,1-.19-.5V555.1a.65.65,0,0,1,.69-.69h17.7a.66.66,0,0,1,.5.19.68.68,0,0,1,.19.5v4.07A.66.66,0,0,1,421.85,559.67Z"/><path class="cls-5" d="M451.69,580.72l-.88-3.15c0-.16-.13-.23-.31-.23h-8.68a.3.3,0,0,0-.31.23l-.88,3.15a.72.72,0,0,1-.77.57h-5.41a.62.62,0,0,1-.54-.21.59.59,0,0,1,0-.56L441.94,555a.76.76,0,0,1,.8-.58h6.8a.75.75,0,0,1,.81.58l8.1,25.53a.81.81,0,0,1,0,.27c0,.34-.21.5-.62.5h-5.41A.72.72,0,0,1,451.69,580.72Zm-8.6-8.53a.2.2,0,0,0,.23.23H449a.22.22,0,0,0,.23-.31l-2.92-10.21c0-.13-.07-.19-.13-.19s-.12.06-.17.19l-2.92,10.21Z"/><path class="cls-5" d="M462.67,580.72l-7-25.54a.47.47,0,0,1,0-.23c0-.36.2-.54.61-.54h5.38a.83.83,0,0,1,.52.17.73.73,0,0,1,.25.45l3.22,13.55c.05.1.11.15.17.15s.11-.05.14-.15L469,555a.7.7,0,0,1,.77-.62h4.57a.74.74,0,0,1,.77.62l3.37,13.55c.06.1.11.15.18.15s.11-.05.13-.15l3-13.55a.68.68,0,0,1,.25-.45.81.81,0,0,1,.52-.17h5.22a.56.56,0,0,1,.61.77L482,580.68a.73.73,0,0,1-.77.61h-5.11a.83.83,0,0,1-.52-.17.7.7,0,0,1-.25-.44l-3.22-14.4c0-.13-.08-.2-.16-.2s-.12.07-.15.2l-2.92,14.4a.67.67,0,0,1-.73.61h-4.76A.72.72,0,0,1,462.67,580.72Z"/><path class="cls-5" d="M504.41,580.72l-.88-3.15c0-.16-.13-.23-.31-.23h-8.67a.29.29,0,0,0-.31.23l-.88,3.15a.72.72,0,0,1-.77.57h-5.42a.65.65,0,0,1-.54-.21.6.6,0,0,1,0-.56L494.66,555a.78.78,0,0,1,.81-.58h6.79a.74.74,0,0,1,.81.58l8.1,25.53a.61.61,0,0,1,0,.27c0,.34-.2.5-.61.5h-5.42A.72.72,0,0,1,504.41,580.72Zm-8.6-8.53a.21.21,0,0,0,.23.23h5.69a.22.22,0,0,0,.21-.1.25.25,0,0,0,0-.21L499,561.9c0-.13-.07-.19-.14-.19s-.12.06-.17.19l-2.92,10.21Z"/><path class="cls-5" d="M528.84,580.75l-4.46-10a.29.29,0,0,0-.3-.19H521.7a.24.24,0,0,0-.27.27v9.75a.67.67,0,0,1-.2.5.64.64,0,0,1-.49.19h-5a.68.68,0,0,1-.5-.19.7.7,0,0,1-.19-.5V555.1a.72.72,0,0,1,.19-.5.68.68,0,0,1,.5-.19h11.18a9.23,9.23,0,0,1,4.45,1,7.34,7.34,0,0,1,3,2.94,8.83,8.83,0,0,1,1,4.35,7.82,7.82,0,0,1-1.24,4.42,7.18,7.18,0,0,1-3.48,2.73.25.25,0,0,0-.15.38l4.91,10.22.08.3c0,.34-.21.5-.61.5h-5.27A.81.81,0,0,1,528.84,580.75Zm-7.41-20.62v5.3a.24.24,0,0,0,.27.27h4.18a3.28,3.28,0,0,0,2.3-.79,2.66,2.66,0,0,0,.89-2.09,2.77,2.77,0,0,0-.89-2.15,3.25,3.25,0,0,0-2.3-.81H521.7A.24.24,0,0,0,521.43,560.13Z"/><path class="cls-5" d="M539.78,581.1a.66.66,0,0,1-.19-.5V555.1a.65.65,0,0,1,.69-.69h9.56a12.79,12.79,0,0,1,5.3,1,8.1,8.1,0,0,1,3.57,2.95,7.82,7.82,0,0,1,1.27,4.42v10.06a7.79,7.79,0,0,1-1.27,4.42,8.1,8.1,0,0,1-3.57,3,12.63,12.63,0,0,1-5.3,1h-9.56A.68.68,0,0,1,539.78,581.1Zm6.45-5.26h3.88a3.17,3.17,0,0,0,2.5-1.1,4.44,4.44,0,0,0,1-2.93V563.9a4.26,4.26,0,0,0-1-2.94,3.29,3.29,0,0,0-2.56-1.1h-3.84a.24.24,0,0,0-.27.27v15.44A.24.24,0,0,0,546.23,575.84Z"/><path class="cls-5" d="M568.49,580.58a8,8,0,0,1-3.59-2.92,7.67,7.67,0,0,1-1.27-4.39v-.5a.65.65,0,0,1,.69-.69h4.88a.87.87,0,0,1,.5.13.41.41,0,0,1,.19.33V573a2.73,2.73,0,0,0,1.25,2.19,5.1,5.1,0,0,0,3.2,1,3.68,3.68,0,0,0,2.5-.73,2.21,2.21,0,0,0,.8-1.69,1.81,1.81,0,0,0-.94-1.65,16.09,16.09,0,0,0-3.36-1.35l-.84-.27a31.41,31.41,0,0,1-4.3-1.74,9.33,9.33,0,0,1-3.15-2.62,6.49,6.49,0,0,1-1.31-4.12,7.11,7.11,0,0,1,1.25-4.17,8,8,0,0,1,3.46-2.75,12.44,12.44,0,0,1,5-1,12.68,12.68,0,0,1,5.32,1.08,8.83,8.83,0,0,1,3.7,3,7.76,7.76,0,0,1,1.35,4.5v.3a.7.7,0,0,1-.19.5.68.68,0,0,1-.5.19h-4.88a1.18,1.18,0,0,1-.5-.09.31.31,0,0,1-.19-.29V563a3.11,3.11,0,0,0-1.19-2.38,4.71,4.71,0,0,0-3.19-1,3.9,3.9,0,0,0-2.34.61,2,2,0,0,0-.85,1.73,1.93,1.93,0,0,0,.54,1.4,5.06,5.06,0,0,0,1.67,1c.76.32,1.91.73,3.48,1.25,1.79.61,3.18,1.15,4.18,1.61a8.37,8.37,0,0,1,2.82,2.24,6.06,6.06,0,0,1,1.33,4.09,7.23,7.23,0,0,1-1.27,4.25,8.2,8.2,0,0,1-3.57,2.82,13.15,13.15,0,0,1-5.3,1A13.29,13.29,0,0,1,568.49,580.58Z"/><path class="cls-5" d="M205.82,241.59a2.35,2.35,0,0,1,.67,1.74v14.39a2.3,2.3,0,0,1-2.42,2.41H181.63a.84.84,0,0,0-.95.95v71.5a2.3,2.3,0,0,1-2.41,2.42H160.79a2.34,2.34,0,0,1-1.74-.67,2.37,2.37,0,0,1-.68-1.75v-71.5a.84.84,0,0,0-.94-.95H135.79a2.31,2.31,0,0,1-2.42-2.41V243.33a2.33,2.33,0,0,1,2.42-2.42h68.28A2.37,2.37,0,0,1,205.82,241.59Z"/><path class="cls-5" d="M214.62,329.62a31.68,31.68,0,0,1-11.36-17.47,43.14,43.14,0,0,1-1.61-12.1,48.41,48.41,0,0,1,1.75-13,29.93,29.93,0,0,1,11.49-16.6q8.4-6,20.36-6t20,6a31,31,0,0,1,11.42,16.46,43,43,0,0,1,1.89,12.9,46.71,46.71,0,0,1-1.48,11.83,31.59,31.59,0,0,1-11.29,17.88q-8.48,6.58-20.7,6.58T214.62,329.62Zm27-15.12a13.66,13.66,0,0,0,3.69-6.79,33.91,33.91,0,0,0,.81-7.66,31.84,31.84,0,0,0-.94-7.79,12.63,12.63,0,0,0-3.63-6.45,10.33,10.33,0,0,0-13,0,12.78,12.78,0,0,0-3.56,6.45,26.29,26.29,0,0,0-.94,7.79,34.51,34.51,0,0,0,.8,7.66,14.84,14.84,0,0,0,3.77,6.79,8.85,8.85,0,0,0,6.45,2.49A9.1,9.1,0,0,0,241.64,314.5Z"/><path class="cls-5" d="M345.73,300.59a47.34,47.34,0,0,1-2.82,16.94,29.15,29.15,0,0,1-10,13.5,25.31,25.31,0,0,1-15.53,5.18q-10.22,0-15.32-6.19c-.27-.35-.51-.49-.74-.4s-.33.36-.33.81v26.74a2.4,2.4,0,0,1-.67,1.75,2.37,2.37,0,0,1-1.75.67H281.09a2.3,2.3,0,0,1-2.42-2.42V267.93a2.36,2.36,0,0,1,.67-1.75,2.4,2.4,0,0,1,1.75-.67h17.47a2.3,2.3,0,0,1,2.42,2.42v3.23c0,.45.11.71.33.8s.47,0,.74-.4q5.11-7.12,15.32-7.12a25.63,25.63,0,0,1,16.13,5.77,28.79,28.79,0,0,1,10.08,14.92A49.81,49.81,0,0,1,345.73,300.59Zm-23.92-.4q0-6.85-2.28-11.16a9,9,0,0,0-8.2-5q-5.11,0-7.93,5.11a23.29,23.29,0,0,0-2.29,11q0,7.4,2.42,11.82a8.73,8.73,0,0,0,7.8,4.57,8.89,8.89,0,0,0,8.06-4.7Q321.81,307.44,321.81,300.19Z"/><path class="cls-5" d="M394.12,240.91h18.41a2.31,2.31,0,0,1,2.42,2.42v89.25a2.3,2.3,0,0,1-2.42,2.42H395.06a2.3,2.3,0,0,1-2.42-2.42V262.29a.93.93,0,0,0-.27-.68.6.6,0,0,0-.67-.13l-11.29,1.34H380c-1.44,0-2.15-.76-2.15-2.28V248a2.78,2.78,0,0,1,2-2.69l11.29-3.9A7.42,7.42,0,0,1,394.12,240.91Z"/><path class="cls-5" d="M434.57,327.94q-8.86-8.67-8.87-23.59V271.56q0-14.79,8.87-23.25t24.33-8.47q15.45,0,24.46,8.53t9,23.19v32.79q0,14.92-9,23.59t-24.46,8.67Q443.45,336.61,434.57,327.94ZM467,314.23q3-3.15,3-8.67V270.75q0-5.5-3-8.67a10.73,10.73,0,0,0-8.13-3.15,10.35,10.35,0,0,0-7.93,3.15q-3,3.17-3,8.67v34.81c0,3.68,1,6.57,2.89,8.67a10.29,10.29,0,0,0,8,3.16A10.7,10.7,0,0,0,467,314.23Z"/><path class="cls-5" d="M511.32,327.94q-8.86-8.67-8.87-23.59V271.56q0-14.79,8.87-23.25t24.33-8.47q15.45,0,24.46,8.53t9,23.19v32.79q0,14.92-9,23.59t-24.46,8.67Q520.19,336.61,511.32,327.94Zm32.46-13.71q3-3.15,3-8.67V270.75q0-5.5-3-8.67a10.76,10.76,0,0,0-8.13-3.15,10.35,10.35,0,0,0-7.93,3.15c-2,2.11-3,5-3,8.67v34.81q0,5.52,2.89,8.67a10.29,10.29,0,0,0,8,3.16A10.73,10.73,0,0,0,543.78,314.23Z"/><path class="cls-5" d="M277.22,673.38a1.37,1.37,0,0,1-.38-1v-7.75a2.19,2.19,0,0,1,.77-1.69q2.83-2.61,5.91-5.84t5.84-6.15q5.07-5.3,4.76-5,7-7.22,7-10.52a4.73,4.73,0,0,0-1.65-3.69,6.21,6.21,0,0,0-4.26-1.46,6.08,6.08,0,0,0-4.23,1.46,5,5,0,0,0-1.61,3.84V637a1.31,1.31,0,0,1-1.38,1.38H277.84a1.38,1.38,0,0,1-1-.38,1.34,1.34,0,0,1-.38-1V633.6a13.4,13.4,0,0,1,2.84-7.53,16.19,16.19,0,0,1,6.68-5,23.6,23.6,0,0,1,9.22-1.73,22.08,22.08,0,0,1,9.94,2.11,15.79,15.79,0,0,1,6.53,5.72,14.62,14.62,0,0,1,.73,14.36,32.09,32.09,0,0,1-4.61,6.84,157.72,157.72,0,0,1-11.29,11.67l-2.15,2.08c-.2.2-.28.37-.23.5s.21.19.46.19h18.74a1.38,1.38,0,0,1,1,.38,1.34,1.34,0,0,1,.38,1v8.14a1.33,1.33,0,0,1-.38,1,1.35,1.35,0,0,1-1,.39h-35.1A1.35,1.35,0,0,1,277.22,673.38Z"/><path class="cls-5" d="M325.38,669.73q-5.07-5-5.07-13.48V637.51q0-8.44,5.07-13.28t13.9-4.84q8.84,0,14,4.88t5.14,13.24v18.74q0,8.54-5.14,13.48t-14,5Q330.45,674.69,325.38,669.73Zm18.55-7.83a6.86,6.86,0,0,0,1.73-4.95v-19.9a6.86,6.86,0,0,0-1.73-4.95,6.16,6.16,0,0,0-4.65-1.81,5.92,5.92,0,0,0-4.53,1.81,6.93,6.93,0,0,0-1.69,4.95V657a7,7,0,0,0,1.65,4.95,5.88,5.88,0,0,0,4.57,1.8A6.15,6.15,0,0,0,343.93,661.9Z"/><path class="cls-5" d="M364.7,673.38a1.37,1.37,0,0,1-.38-1v-7.75a2.16,2.16,0,0,1,.77-1.69q2.84-2.61,5.91-5.84l5.84-6.15c3.38-3.53,5-5.19,4.76-5q7-7.22,7-10.52a4.73,4.73,0,0,0-1.65-3.69,6.25,6.25,0,0,0-4.27-1.46,6.07,6.07,0,0,0-4.22,1.46,4.93,4.93,0,0,0-1.61,3.84V637a1.35,1.35,0,0,1-.39,1,1.37,1.37,0,0,1-1,.38H365.32a1.37,1.37,0,0,1-1-.38,1.35,1.35,0,0,1-.39-1V633.6a13.49,13.49,0,0,1,2.85-7.53,16.19,16.19,0,0,1,6.68-5,23.55,23.55,0,0,1,9.21-1.73,22.12,22.12,0,0,1,9.95,2.11,15.79,15.79,0,0,1,6.53,5.72,14.69,14.69,0,0,1,.73,14.36,32.09,32.09,0,0,1-4.61,6.84A159.86,159.86,0,0,1,384,660.09l-2.15,2.08c-.21.2-.28.37-.23.5s.2.19.46.19H400.8a1.31,1.31,0,0,1,1.38,1.38v8.14a1.37,1.37,0,0,1-.38,1,1.35,1.35,0,0,1-1,.39H365.7A1.35,1.35,0,0,1,364.7,673.38Z"/><path class="cls-5" d="M415.47,620H426a1.35,1.35,0,0,1,1,.39,1.37,1.37,0,0,1,.38,1v51a1.37,1.37,0,0,1-.38,1,1.35,1.35,0,0,1-1,.39H416a1.34,1.34,0,0,1-1.39-1.39V632.21a.52.52,0,0,0-.15-.38.35.35,0,0,0-.38-.08l-6.46.77h-.23c-.82,0-1.22-.43-1.22-1.3v-7.15a1.58,1.58,0,0,1,1.15-1.53l6.45-2.23A4.22,4.22,0,0,1,415.47,620Z"/></svg>